<svg xmlns="http://www.w3.org/2000/svg" viewBox="0 0 484 484">
    <path d="m207.71875 365.035156c0 18.933594 15.347656 34.28125 34.28125 34.28125s34.28125-15.347656 34.28125-34.28125-15.347656-34.28125-34.28125-34.28125c-18.925781.019532-34.261719 15.355469-34.28125 34.28125zm54.5625 0c0 11.203125-9.082031 20.28125-20.28125 20.28125-11.203125 0-20.285156-9.078125-20.28125-20.28125 0-11.203125 9.078125-20.28125 20.28125-20.28125 11.195312.011719 20.269531 9.085938 20.28125 20.28125zm0 0"/>
    <path d="m268.386719 396.542969c-2.214844-.039063-4.3125.984375-5.640625 2.75-1.546875 2.085937-3.402344 3.925781-5.5 5.449219-11.4375 8.425781-27.539063 6-35.984375-5.421876-1.328125-1.773437-3.425781-2.808593-5.640625-2.777343-17.390625-.082031-31.550782 13.953125-31.621094 31.34375v48.199219c0 3.867187 3.207031 7.460937 7.074219 7.460937h101.851562c3.867188 0 7.074219-3.59375 7.074219-7.460937v-48.199219c-.070312-17.386719-14.226562-31.421875-31.613281-31.34375zm17.613281 73h-88v-41.65625c.027344-8.5 6.125-15.769531 14.488281-17.277344 7.566407 8.292969 18.277344 13.023437 29.507813 13.023437 11.226562 0 21.9375-4.730468 29.503906-13.023437 8.367188 1.503906 14.46875 8.773437 14.5 17.277344zm0 0"/>
    <path d="m351 181.542969c0-3.867188-3.132812-7-7-7h-203c-3.867188 0-7 3.132812-7 7v120c0 3.867187 3.132812 7 7 7h203c3.867188 0 7-3.132813 7-7zm-15 113h-188v-106h188zm0 0"/>
    <path d="m162.804688 267.09375c10.5.167969 17.207031 5.082031 17.554687 12.6875.144531 3.746094 3.203125 6.71875 6.953125 6.761719h109.375c3.753906-.039063 6.824219-3.003907 6.992188-6.757813.351562-7.5 7.175781-12.484375 17.511718-12.652344 3.816406-.085937 6.847656-3.222656 6.808594-7.039062v-37.101562c.039062-3.804688-3-6.929688-6.808594-7-10.339844-.164063-16.949218-5.082032-17.304687-12.691407-.152344-3.746093-3.207031-6.714843-6.953125-6.757812h-109.621094c-3.753906.039062-6.824219 3.003906-6.992188 6.757812-.351562 7.5-7.175781 12.484375-17.511718 12.652344-3.816406.085937-6.847656 3.226563-6.808594 7.039063v37.101562c-.039062 3.804688 3 6.929688 6.804688 7zm7.195312-37.769531c11-2.105469 20.046875-8.78125 23.117188-18.78125h98.011718c2.761719 9 9.871094 16.609375 22.871094 18.820312v24.402344c-11 2.101563-20.050781 8.777344-23.117188 18.777344h-97.722656c-3-10-11.160156-16.746094-23.160156-18.808594zm0 0"/>
    <path d="m242 270.273438c15.867188 0 28.730469-12.863282 28.730469-28.730469 0-15.867188-12.863281-28.730469-28.730469-28.730469s-28.730469 12.863281-28.730469 28.730469c.019531 15.859375 12.871094 28.710937 28.730469 28.730469zm0-43.460938c8.132812 0 14.730469 6.597656 14.730469 14.730469 0 8.132812-6.597657 14.730469-14.730469 14.730469s-14.730469-6.597657-14.730469-14.730469c.011719-8.128907 6.601563-14.71875 14.730469-14.730469zm0 0"/>
    <path d="m242 68.5625c18.933594 0 34.28125-15.347656 34.28125-34.28125s-15.347656-34.28125-34.28125-34.28125-34.28125 15.347656-34.28125 34.28125c.019531 18.925781 15.355469 34.261719 34.28125 34.28125zm0-54.5625c11.203125 0 20.28125 9.082031 20.28125 20.28125 0 11.203125-9.078125 20.285156-20.28125 20.285156s-20.28125-9.082031-20.28125-20.285156c.007812-11.195312 9.082031-20.269531 20.28125-20.28125zm0 0"/>
    <path d="m184 97.132812v48.203126c.019531 3.917968 3.152344 7.113281 7.074219 7.207031h101.851562c3.921875-.09375 7.054688-3.289063 7.074219-7.210938v-48.199219c-.050781-17.433593-14.179688-31.550781-31.613281-31.589843-2.230469.007812-4.324219 1.074219-5.640625 2.875-4.84375 6.609375-12.550782 10.511719-20.742188 10.511719-8.195312 0-15.898437-3.902344-20.742187-10.511719-1.320313-1.800781-3.414063-2.867188-5.644531-2.875-17.4375.035156-31.566407 14.15625-31.617188 31.589843zm14 0c.027344-8.5 6.121094-15.765624 14.488281-17.277343 13.691407 15.117187 36.59375 17.433593 53.035157 5.363281 2.167968-1.582031 4.171874-3.378906 5.980468-5.363281 8.367188 1.507812 14.464844 8.777343 14.496094 17.277343v41.410157h-88zm0 0"/>
    <path d="m391.335938 199.660156c0 18.933594 15.347656 34.28125 34.28125 34.28125 18.933593 0 34.28125-15.347656 34.28125-34.28125s-15.347657-34.28125-34.28125-34.28125c-18.925782.019532-34.261719 15.355469-34.28125 34.28125zm54.5625 0c0 11.199219-9.082032 20.28125-20.285157 20.28125-11.199219 0-20.28125-9.082031-20.28125-20.28125 0-11.203125 9.082031-20.285156 20.285157-20.28125 11.195312.007813 20.273437 9.082032 20.28125 20.28125zm0 0"/>
    <path d="m452 230.542969c-2.257812.078125-4.34375 1.214843-5.640625 3.0625-1.542969 2.132812-3.398437 4.019531-5.5 5.601562-11.503906 8.347657-27.597656 5.820313-35.984375-5.65625-1.304688-1.835937-3.394531-2.949219-5.640625-3.011719-17.394531.003907-31.234375 14.582032-31.234375 31.972657v48.199219c-.0625 1.804687.617188 3.558593 1.878906 4.851562 1.265625 1.289062 3.003906 2.007812 4.8125 1.980469h101.851563c3.863281 0 7.457031-2.96875 7.457031-6.832031v-48.203126c-.203125-17.582031-14.417969-31.78125-32-31.964843zm18 73h-88v-41.03125c-.054688-8.46875 5.972656-15.753907 14.300781-17.28125 13.660157 15.09375 36.519531 17.410156 52.929688 5.363281 2.214843-1.582031 4.265625-3.378906 6.128906-5.363281 8.398437 1.496093 14.546875 8.75 14.640625 17.28125zm0 0"/>
    <path d="m58.382812 233.941406c18.933594 0 34.28125-15.347656 34.28125-34.28125s-15.347656-34.28125-34.28125-34.28125c-18.933593 0-34.28125 15.347656-34.28125 34.28125.019532 18.925782 15.355469 34.261719 34.28125 34.28125zm0-54.5625c11.203126 0 20.28125 9.082032 20.28125 20.285156 0 11.199219-9.082031 20.28125-20.285156 20.277344-11.199218 0-20.28125-9.082031-20.277344-20.28125.011719-11.199218 9.085938-20.269531 20.28125-20.28125zm0 0"/>
    <path d="m116 310.710938v-48.203126c0-17.386718-13.839844-31.964843-31.230469-31.964843-2.253906.082031-4.34375 1.214843-5.640625 3.0625-1.539062 2.132812-3.394531 4.019531-5.5 5.597656-11.503906 8.351563-27.59375 5.824219-35.984375-5.652344-1.304687-1.835937-3.394531-2.949219-5.644531-3.007812-17.585938.183593-31.800781 14.382812-32 31.96875v48.199219c0 3.867187 3.59375 6.835937 7.457031 6.835937h101.851563c1.808594.023437 3.546875-.691406 4.8125-1.984375s1.945312-3.046875 1.878906-4.851562zm-14-7.167969h-88v-41.03125c.113281-8.539063 6.277344-15.789063 14.683594-17.28125 13.734375 15.097656 36.640625 17.410156 53.117187 5.363281 2.125-1.585938 4.082031-3.382812 5.84375-5.363281 8.335938 1.523437 14.386719 8.804687 14.355469 17.28125zm0 0"/>
    <path d="m173.96875 391.992188c-29.839844-13.492188-54.988281-35.554688-72.246094-63.386719-2.042968-3.28125-6.359375-4.285157-9.644531-2.242188-3.28125 2.042969-4.285156 6.359375-2.242187 9.644531 18.71875 30.175782 45.996093 54.105469 78.355468 68.734376 3.519532 1.597656 7.667969.035156 9.261719-3.488282 1.597656-3.519531.035156-7.667968-3.484375-9.265625zm0 0"/>
    <path d="m393.390625 323.714844c-3.320313-1.984375-7.617187-.90625-9.601563 2.414062-17.816406 29.65625-44.414062 53.042969-76.113281 66.914063-3.546875 1.539062-5.171875 5.664062-3.632812 9.210937 1.539062 3.542969 5.664062 5.171875 9.210937 3.632813 34.375-15.046875 63.222656-40.40625 82.550782-72.570313 1.988281-3.320312.90625-7.621094-2.414063-9.601562zm0 0"/>
    <path d="m390.113281 168.570312c1.710938 3.464844 5.910157 4.886719 9.378907 3.175782 3.464843-1.710938 4.886718-5.910156 3.175781-9.375-18.703125-37.855469-50.136719-67.910156-88.789063-84.902344-2.292968-1.019531-4.960937-.738281-6.984375.746094-2.027343 1.480468-3.105469 3.9375-2.824219 6.429687.28125 2.496094 1.878907 4.648438 4.183594 5.644531 35.636719 15.667969 64.617188 43.378907 81.859375 78.28125zm0 0"/>
    <path d="m177.851562 81.667969c-1.585937-3.527344-5.730468-5.097657-9.253906-3.511719-37.777344 17.046875-68.511718 46.609375-87.007812 83.699219-1.136719 2.242187-.984375 4.921875.398437 7.019531 1.382813 2.097656 3.785157 3.292969 6.296875 3.132812 2.507813-.160156 4.734375-1.65625 5.839844-3.914062 17.050781-34.195312 45.386719-61.453125 80.214844-77.171875 3.527344-1.585937 5.097656-5.726563 3.511718-9.253906zm0 0"/>
</svg>
