<svg xmlns="http://www.w3.org/2000/svg" xmlns:xlink="http://www.w3.org/1999/xlink" id="Capa_1" x="0px" y="0px" version="1.1" viewBox="0 0 390.963 390.962" xml:space="preserve">
    <g>
        <g>
            <path d="M390.963,349.153H0V41.81h390.963V349.153z M11.71,337.443h367.542V53.52H11.71V337.443z"/>
        </g>
        <g>
            <path d="M129.75,285.717h-84.69v-84.695h84.69V285.717z M56.771,274.007h61.269v-61.274H56.771V274.007z"/>
        </g>
        <g>
            <path d="M87.405,177.901c-23.349,0-42.345-18.995-42.345-42.345c0-23.352,18.996-42.345,42.345-42.345
			c23.353,0,42.345,18.993,42.345,42.345C129.75,158.906,110.758,177.901,87.405,177.901z M87.405,104.928
			c-16.891,0-30.634,13.743-30.634,30.634s13.743,30.634,30.634,30.634c16.894,0,30.635-13.743,30.635-30.634
			S104.299,104.928,87.405,104.928z"/>
        </g>
        <g>
            <rect width="140.526" height="11.71" x="203.149" y="93.218"/>
        </g>
        <g>
            <rect width="140.526" height="11.711" x="203.149" y="151.77"/>
        </g>
        <g>
            <rect width="140.526" height="11.711" x="203.149" y="210.32"/>
        </g>
        <g>
            <rect width="140.526" height="11.71" x="203.149" y="268.873"/>
        </g>
    </g>
</svg>
