<?xml version="1.0" encoding="UTF-8" standalone="no"?>
<!-- Generator: Gravit.io -->

<svg
   xmlns:dc="http://purl.org/dc/elements/1.1/"
   xmlns:cc="http://creativecommons.org/ns#"
   xmlns:rdf="http://www.w3.org/1999/02/22-rdf-syntax-ns#"
   xmlns:svg="http://www.w3.org/2000/svg"
   xmlns="http://www.w3.org/2000/svg"
   xmlns:sodipodi="http://sodipodi.sourceforge.net/DTD/sodipodi-0.dtd"
   xmlns:inkscape="http://www.inkscape.org/namespaces/inkscape"
   style="isolation:isolate"
   viewBox="0 0 198.42599 149.823"
   width="198.42599"
   height="149.823"
   version="1.1"
   id="svg27"
   sodipodi:docname="logo.svg"
   inkscape:version="0.92.4 (5da689c313, 2019-01-14)">
  <metadata
     id="metadata31">
    <rdf:RDF>
      <cc:Work
         rdf:about="">
        <dc:format>image/svg+xml</dc:format>
        <dc:type
           rdf:resource="http://purl.org/dc/dcmitype/StillImage" />
        <dc:title></dc:title>
      </cc:Work>
    </rdf:RDF>
  </metadata>
  <sodipodi:namedview
     pagecolor="#ffffff"
     bordercolor="#666666"
     borderopacity="1"
     objecttolerance="10"
     gridtolerance="10"
     guidetolerance="10"
     inkscape:pageopacity="0"
     inkscape:pageshadow="2"
     inkscape:window-width="725"
     inkscape:window-height="480"
     id="namedview29"
     showgrid="false"
     fit-margin-top="0"
     fit-margin-left="0"
     fit-margin-right="0"
     fit-margin-bottom="0"
     inkscape:zoom="0.79290951"
     inkscape:cx="99.213"
     inkscape:cy="64.911"
     inkscape:window-x="0"
     inkscape:window-y="28"
     inkscape:window-maximized="0"
     inkscape:current-layer="svg27" />
  <defs
     id="defs5">
    <clipPath
       id="_clipPath_aJvz2iTVYnPhQhWmsGRdrU1kds0LdRzr">
      <rect
         width="297.638"
         height="297.638"
         id="rect2"
         x="0"
         y="0" />
    </clipPath>
  </defs>
  <g
     clip-path="url(#_clipPath_aJvz2iTVYnPhQhWmsGRdrU1kds0LdRzr)"
     id="g25"
     transform="translate(-49.606,-63.907)">
    <path
       d="m 87.245,208 c -0.304,1.2 -1.28,1.809 -2.498,1.809 -1.699,-0.017 -2.788,-1.457 -2.788,-3.107 0,-1.86 1.105,-3.124 2.788,-3.124 1.2,0 2.05,0.512 2.45,1.651 h 2.82 c -0.432,-2.999 -2.949,-4.263 -5.27,-4.263 -2.852,0 -5.735,1.923 -5.752,5.736 0.017,3.798 2.878,5.719 5.719,5.719 h 0.033 c 2.386,0 4.901,-1.249 5.318,-4.421 z"
       style="fill:#577fb1"
       id="path7"
       inkscape:connector-curvature="0" />
    <path
       d="m 99.117,203.657 h 2.756 v 8.651 h 2.836 v -8.651 h 2.74 v -2.563 h -8.332 z"
       style="fill:#577fb1"
       id="path9"
       inkscape:connector-curvature="0" />
    <path
       d="m 121.783,205.229 h -0.081 l -2.113,-4.134 h -3.204 v 0.433 l 3.779,6.855 -1.76,3.621 v 0.305 h 3.09 l 5.32,-10.781 v -0.433 h -3.109 z"
       style="fill:#577fb1"
       id="path11"
       inkscape:connector-curvature="0" />
    <path
       d="m 137.93,209.792 1.555,-4.052 1.617,4.052 z m 2.178,-8.843 h -1.235 l -3.842,8.876 h -1.139 v 3.749 h 2.371 v -1.234 h 6.632 v 1.234 h 2.356 v -3.749 h -1.17 z"
       style="fill:#577fb1"
       id="path13"
       inkscape:connector-curvature="0" />
    <path
       d="m 157.635,206.59 v -5.495 h -2.932 v 11.228 h 1.026 l 5.655,-5.525 v 5.511 h 2.964 v -11.264 h -1.042 z"
       style="fill:#577fb1"
       id="path15"
       inkscape:connector-curvature="0" />
    <path
       d="m 180.747,203.657 v 2.772 h -2.051 c -1.554,0 -1.634,-2.755 0,-2.772 0.225,-0.005 0.452,-0.007 0.682,-0.007 0.458,0 0.919,0.007 1.369,0.007 z m -4.42,4.678 -2.197,3.556 v 0.417 h 3.205 l 1.922,-3.299 h 1.49 v 3.299 h 2.868 v -11.214 h -4.919 c -4.406,0.015 -5.206,5.319 -2.369,7.241 z"
       style="fill:#577fb1"
       id="path17"
       inkscape:connector-curvature="0" />
    <path
       d="m 190.928,160.56 h 4.773 l -0.422,0.969 -5.611,3.897 c 0.157,-0.728 1.03,-4.098 1.26,-4.866 z m 54.549,4.897 -18.022,8.272 3.465,-15.567 -4.758,-3.167 -13.388,9.469 2.069,-9.293 -5.981,-1.331 -3.522,15.82 c -3.191,2.115 -6.337,3.954 -9.032,5.262 -1.541,0.75 -2.936,1.332 -4.069,1.706 -1.088,0.369 -1.955,0.513 -2.296,0.513 h -0.02 l -0.264,-0.243 c -0.206,-0.247 -0.458,-0.732 -0.632,-1.474 -0.128,-0.531 -0.198,-1.206 -0.235,-1.931 l 10.695,-7.426 1.06,-1.293 2.639,-6.054 -2.808,-4.288 h -11.683 l -2.888,2.042 c -0.021,0.06 -0.799,2.258 -1.584,5.346 -0.614,2.439 -1.231,5.412 -1.475,8.411 l -6.499,4.514 4.359,-19.574 -5.982,-1.331 -2.081,9.345 h -9.744 l 1.784,-8.014 -5.981,-1.331 -6.336,28.462 5.98,1.33 3.188,-14.321 h 9.745 l -2.892,12.99 5.996,1.266 8.938,-6.207 c 0.08,0.283 0.152,0.567 0.254,0.845 0.329,0.89 0.785,1.764 1.427,2.555 0.637,0.788 1.472,1.485 2.448,1.964 0.914,0.443 1.764,0.539 2.553,0.543 1.411,-0.01 2.757,-0.336 4.256,-0.822 2.231,-0.739 4.754,-1.904 7.483,-3.381 0.601,-0.328 1.215,-0.675 1.833,-1.031 l -7.653,34.366 5.981,1.331 8.985,-40.358 12.425,-8.79 -3.08,13.84 4.268,3.45 23.629,-10.846 z"
       style="fill:#577fb1"
       id="path19"
       inkscape:connector-curvature="0" />
    <path
       d="M 75.738,139.473 H 60.213 c 5.692,-4.544 11.837,-8.319 18.141,-11.476 z m 60.492,23.23 c 0.319,-0.82 0.613,-1.542 0.864,-2.144 h 14.69 l 1.365,-6.128 h -18.068 l -2.787,1.792 c -0.023,0.053 -1.401,3.071 -2.796,7.006 -0.697,1.969 -1.399,4.165 -1.939,6.366 l -0.002,-0.001 -5.684,4.154 3.935,-17.264 -5.39,-2.576 -15.479,19.635 -0.722,-5.077 -5.233,-1.7 -5.499,5.673 6.513,-29.237 -2.99,-3.729 H 93.777 82.075 l 3.274,-14.708 c 8.097,-3.434 16.277,-5.936 23.946,-7.726 13.019,-3.046 24.5,-4.078 31.492,-4.421 l -16.492,17.669 3.025,5.052 c 0.001,-0.001 0.496,-0.133 1.412,-0.372 6.399,-1.684 33.235,-8.693 51.668,-12.71 l 2.991,-0.652 -1.304,-5.986 -2.992,0.652 c -13.736,2.994 -31.92,7.588 -43.117,10.478 l 14.243,-15.259 -2.155,-5.152 c -0.027,-10e-4 -0.445,-0.012 -1.212,-0.012 -4.36,0.001 -20.043,0.329 -38.954,4.749 -18.9,4.426 -41.095,12.932 -58.294,29.571 l 2.132,4.953 h 22.636 l -14.872,66.799 5.979,1.331 15.232,-68.13 h 12.474 l -8.039,36.091 5.19,2.797 8.695,-8.97 0.851,5.973 5.438,1.463 11.493,-14.58 -2.736,12.004 4.793,3.153 7.856,-5.743 c 0.075,0.582 0.197,1.162 0.387,1.744 0.367,1.125 1.063,2.314 2.217,3.15 0.95,0.706 2.147,1.054 3.219,1.054 h 0.062 c 1.363,-0.009 2.519,-0.428 3.564,-0.959 1.82,-0.948 3.423,-2.332 4.982,-3.878 l 0.241,-0.254 -0.814,3.658 5.98,1.33 3.719,-16.718 -5.561,-2.33 -0.021,0.029 c -0.235,0.363 -2.565,3.889 -5.372,7.208 -1.396,1.657 -2.923,3.263 -4.261,4.349 -0.664,0.543 -1.28,0.953 -1.741,1.181 -0.166,0.084 -0.301,0.137 -0.414,0.179 l -0.046,-0.151 c -0.068,-0.293 -0.117,-0.737 -0.115,-1.28 -0.007,-1.296 0.279,-3.123 0.754,-5.04 0.705,-2.885 1.803,-5.999 2.722,-8.356 z"
       style="fill:#577fb1"
       id="path21"
       inkscape:connector-curvature="0" />
    <path
       d="m 190.677,106.198 c 0,0 -2.104,0.061 -3.884,1.667 l 5.356,8.107 -4.078,8.618 3.572,-0.443 5.011,-7.479 18.889,-2.877 -5.502,34.804 3.964,-1.355 8.409,-34.413 c 0,0 20.074,-3.081 19.753,-6.734 -0.163,-1.886 -3.52,-2.534 -7.246,-2.534 -3.235,0 -6.748,0.488 -8.695,1.077 l -2.457,0.707 8.133,-41.436 -3.605,2.179 -11.521,41.375 -17.394,6.034 -1.124,-0.915 2.12,-7.384 -3.702,0.985 -1.743,3.513 z"
       style="fill:#577fb1"
       id="path23"
       inkscape:connector-curvature="0" />
  </g>
</svg>
